<?xml version="1.0" encoding="utf-8"?>
<!-- Generator: Adobe Illustrator 24.1.0, SVG Export Plug-In . SVG Version: 6.00 Build 0)  -->
<svg version="1.1" id="Layer_1" xmlns="http://www.w3.org/2000/svg" xmlns:xlink="http://www.w3.org/1999/xlink" x="0px" y="0px"
	 viewBox="0 0 100 100" style="enable-background:new 0 0 100 100;" xml:space="preserve">
<style type="text/css">
	.st0{fill-rule:evenodd;clip-rule:evenodd;fill:#FFFFFF;}
</style>
<circle cx="49.85" cy="49.98" r="49.5"/>
<path class="st0" d="M49.85,22.29c-15.67,0-28.38,12.71-28.38,28.39c0,12.54,8.13,23.18,19.41,26.93c1.42,0.26,1.94-0.62,1.94-1.37
	c0-0.67-0.02-2.46-0.04-4.83c-7.9,1.72-9.56-3.8-9.56-3.8c-1.29-3.28-3.15-4.15-3.15-4.15c-2.58-1.76,0.19-1.73,0.19-1.73
	c2.85,0.2,4.35,2.93,4.35,2.93c2.53,4.34,6.64,3.09,8.26,2.36c0.26-1.83,0.99-3.09,1.8-3.79c-6.3-0.72-12.93-3.15-12.93-14.03
	c0-3.1,1.11-5.63,2.92-7.62c-0.29-0.72-1.27-3.6,0.28-7.51c0,0,2.38-0.76,7.81,2.91c2.26-0.63,4.69-0.94,7.11-0.96
	c2.41,0.01,4.84,0.33,7.11,0.96c5.42-3.67,7.8-2.91,7.8-2.91c1.55,3.91,0.57,6.79,0.28,7.51c1.82,1.98,2.92,4.52,2.92,7.62
	c0,10.9-6.64,13.3-12.96,14.01c1.02,0.88,1.93,2.61,1.93,5.26c0,3.79-0.03,6.86-0.03,7.79c0,0.76,0.51,1.64,1.95,1.36
	c11.27-3.76,19.39-14.39,19.39-26.93C78.24,35,65.53,22.29,49.85,22.29z"/>
</svg>
