<?xml version="1.0" encoding="utf-8"?>
<!-- Generator: Adobe Illustrator 24.1.0, SVG Export Plug-In . SVG Version: 6.00 Build 0)  -->
<svg version="1.1" id="Layer_1" xmlns="http://www.w3.org/2000/svg" xmlns:xlink="http://www.w3.org/1999/xlink" x="0px" y="0px"
	 viewBox="0 0 100 100" style="enable-background:new 0 0 100 100;" xml:space="preserve">
<style type="text/css">
	.st0{fill-rule:evenodd;clip-rule:evenodd;fill:#FFFFFF;}
</style>
<circle cx="50.09" cy="50.01" r="49.5"/>
<path class="st0" d="M49.61,17.16C31.05,17.16,16,32.21,16,50.78c0,14.85,9.63,27.45,22.99,31.9c1.68,0.31,2.29-0.73,2.29-1.62
	c0-0.8-0.03-2.91-0.05-5.72c-9.35,2.03-11.32-4.51-11.32-4.51c-1.53-3.88-3.73-4.92-3.73-4.92c-3.05-2.09,0.23-2.04,0.23-2.04
	c3.37,0.24,5.15,3.46,5.15,3.46c3,5.14,7.87,3.65,9.78,2.79c0.31-2.17,1.17-3.65,2.13-4.49c-7.46-0.85-15.31-3.73-15.31-16.61
	c0-3.67,1.31-6.67,3.46-9.02c-0.35-0.85-1.5-4.27,0.33-8.9c0,0,2.82-0.9,9.24,3.45c2.68-0.75,5.56-1.12,8.42-1.13
	c2.85,0.01,5.73,0.39,8.42,1.13c6.42-4.35,9.23-3.45,9.23-3.45c1.83,4.63,0.68,8.05,0.33,8.9c2.15,2.35,3.46,5.35,3.46,9.02
	c0,12.91-7.86,15.76-15.35,16.59c1.21,1.04,2.28,3.09,2.28,6.23c0,4.49-0.04,8.12-0.04,9.22c0,0.9,0.61,1.94,2.31,1.62
	c13.35-4.45,22.97-17.04,22.97-31.89C83.23,32.21,68.18,17.16,49.61,17.16z"/>
</svg>
