<?xml version="1.0" encoding="utf-8"?>
<!-- Generator: Adobe Illustrator 24.1.0, SVG Export Plug-In . SVG Version: 6.00 Build 0)  -->
<svg version="1.1" id="Layer_1" xmlns="http://www.w3.org/2000/svg" xmlns:xlink="http://www.w3.org/1999/xlink" x="0px" y="0px"
	 viewBox="0 0 100 100" style="enable-background:new 0 0 100 100;" xml:space="preserve">
<style type="text/css">
	.st0{fill:#FFFFFF;}
</style>
<circle cx="50.09" cy="50.01" r="49.5"/>
<g>
	<path class="st0" d="M16.41,49.54c0-6.21-0.12-12.41,0.03-18.62c0.14-6.03,2.68-10.77,8.27-13.55c2.45-1.22,5.11-1.58,7.81-1.58
		c11.77-0.03,23.53-0.03,35.3,0c3.83,0.01,7.46,0.78,10.55,3.26c3.3,2.64,5.02,6.12,5.45,10.28c0.13,1.23,0.17,2.46,0.17,3.69
		c-0.01,11.33,0.01,22.67-0.01,34c-0.01,3.66-0.66,7.16-2.9,10.19c-2.75,3.73-6.53,5.56-11.08,5.97c-1.31,0.12-2.62,0.13-3.94,0.13
		c-11.11,0-22.21,0.02-33.32-0.01c-3.32-0.01-6.55-0.52-9.43-2.35c-3.72-2.36-5.89-5.75-6.61-10.08c-0.25-1.53-0.34-3.07-0.33-4.62
		c0.02-5.57,0.01-11.15,0.01-16.73C16.39,49.54,16.4,49.54,16.41,49.54z M60.48,47.04c-3.66,0-7.31,0-10.97,0
		c-1.51,0-2.29,0.78-2.3,2.28c-0.01,3.57-0.01,7.15,0,10.72c0,1.51,0.78,2.29,2.28,2.29c6.37,0,12.73-0.01,19.1,0.01
		c1.08,0,1.77-0.44,2.28-1.37c1.95-3.59,2.92-7.4,2.86-11.49c-0.03-1.72-0.73-2.45-2.44-2.45C67.69,47.03,64.08,47.04,60.48,47.04z
		 M59.83,44.02c3.5,0,7,0.01,10.5-0.01c1.57-0.01,2.46-1.26,1.97-2.74c-0.75-2.26-1.73-4.43-3.27-6.26
		c-5.1-6.05-11.6-9.14-19.56-9.03c-1.52,0.02-2.25,0.78-2.26,2.31c0,4.47,0,8.94,0,13.41c0,1.55,0.77,2.31,2.35,2.31
		C52.98,44.02,56.4,44.02,59.83,44.02z M35.5,47.04c-2.11,0-4.21,0-6.32,0c-1.73,0-2.4,0.71-2.42,2.45
		c-0.05,4.09,0.97,7.9,2.85,11.51c0.48,0.92,1.17,1.35,2.2,1.34c3.37-0.02,6.74,0,10.1-0.01c1.51,0,2.27-0.77,2.27-2.29
		c0-3.58,0-7.15,0-10.73c0-1.5-0.78-2.27-2.29-2.27C39.76,47.03,37.63,47.04,35.5,47.04z M43.54,35.89c0-1.97,0.01-3.94,0-5.91
		c-0.02-1.76-1.45-2.64-3.04-1.88c-5.71,2.73-9.8,6.98-12.1,12.9c-0.67,1.72,0.19,3.01,2.04,3.01c3.6,0.01,7.21,0.01,10.81,0
		c1.5,0,2.28-0.78,2.28-2.29C43.55,39.78,43.54,37.84,43.54,35.89z M55.88,65.35c-2.16,0-4.31-0.01-6.47,0
		c-1.3,0.01-2.15,0.76-2.19,1.98c-0.04,1.26-0.04,2.52,0,3.78c0.04,1.1,0.83,1.88,1.89,1.95c5.22,0.38,9.9-1.18,14.25-3.93
		c1.04-0.65,1.33-1.46,1.03-2.39c-0.3-0.92-1.05-1.4-2.22-1.4C60.08,65.34,57.98,65.35,55.88,65.35z M38.5,65.35
		c-1.05,0-2.1,0-3.15,0c-0.46,0-0.81,0.19-1,0.62c-0.2,0.45-0.05,0.82,0.28,1.14c1.8,1.72,3.83,3.11,6.17,3.99
		c1.36,0.51,2.66-0.36,2.73-1.81c0.03-0.6,0.02-1.21,0-1.81c-0.03-1.31-0.81-2.11-2.12-2.13C40.45,65.33,39.47,65.35,38.5,65.35z"/>
	<path d="M60.48,47.04c3.6,0,7.21,0,10.81,0c1.72,0,2.42,0.72,2.44,2.45c0.06,4.08-0.91,7.9-2.86,11.49
		c-0.5,0.93-1.2,1.37-2.28,1.37c-6.37-0.02-12.73-0.01-19.1-0.01c-1.5,0-2.28-0.78-2.28-2.29c-0.01-3.57-0.01-7.15,0-10.72
		c0-1.5,0.79-2.28,2.3-2.28C53.17,47.03,56.82,47.04,60.48,47.04z"/>
	<path d="M59.83,44.02c-3.42,0-6.85,0-10.27,0c-1.57,0-2.34-0.76-2.35-2.31c-0.01-4.47,0-8.94,0-13.41c0-1.53,0.74-2.29,2.26-2.31
		c7.96-0.11,14.46,2.99,19.56,9.03c1.54,1.82,2.51,4,3.27,6.26c0.49,1.48-0.4,2.73-1.97,2.74C66.83,44.03,63.33,44.02,59.83,44.02z"
		/>
	<path d="M35.5,47.04c2.13,0,4.26,0,6.39,0c1.52,0,2.29,0.77,2.29,2.27c0,3.58,0,7.15,0,10.73c0,1.52-0.76,2.29-2.27,2.29
		c-3.37,0.01-6.74-0.01-10.1,0.01c-1.04,0.01-1.72-0.42-2.2-1.34c-1.88-3.61-2.9-7.42-2.85-11.51c0.02-1.74,0.7-2.45,2.42-2.45
		C31.29,47.03,33.4,47.04,35.5,47.04z"/>
	<path d="M43.54,35.89c0,1.95,0.01,3.89,0,5.84c-0.01,1.51-0.78,2.28-2.28,2.29c-3.6,0.01-7.21,0.01-10.81,0
		c-1.85,0-2.71-1.29-2.04-3.01c2.3-5.92,6.39-10.17,12.1-12.9c1.59-0.76,3.03,0.11,3.04,1.88C43.55,31.95,43.54,33.92,43.54,35.89z"
		/>
	<path d="M55.88,65.35c2.1,0,4.21,0,6.31,0c1.17,0,1.92,0.48,2.22,1.4c0.3,0.93,0,1.73-1.03,2.39c-4.35,2.75-9.04,4.31-14.25,3.93
		c-1.07-0.08-1.86-0.85-1.89-1.95c-0.04-1.26-0.04-2.52,0-3.78c0.04-1.22,0.89-1.98,2.19-1.98C51.56,65.34,53.72,65.35,55.88,65.35z
		"/>
	<path d="M38.5,65.35c0.97,0,1.94-0.01,2.92,0c1.3,0.02,2.09,0.82,2.12,2.13c0.01,0.6,0.03,1.21,0,1.81
		c-0.07,1.45-1.37,2.32-2.73,1.81c-2.35-0.88-4.37-2.27-6.17-3.99c-0.33-0.31-0.48-0.69-0.28-1.14c0.19-0.44,0.55-0.62,1-0.62
		C36.4,65.34,37.45,65.35,38.5,65.35z"/>
</g>
</svg>
