<?xml version="1.0" encoding="utf-8"?>
<!-- Generator: Adobe Illustrator 24.1.0, SVG Export Plug-In . SVG Version: 6.00 Build 0)  -->
<svg version="1.1" id="Layer_1" xmlns="http://www.w3.org/2000/svg" xmlns:xlink="http://www.w3.org/1999/xlink" x="0px" y="0px"
	 viewBox="0 0 100 100" style="enable-background:new 0 0 100 100;" xml:space="preserve">
<style type="text/css">
	.st0{fill:#FFFFFF;}
</style>
<circle cx="49.8" cy="49.78" r="49.5"/>
<g>
	<path class="st0" d="M21.33,49.77c0-5.23-0.1-10.46,0.03-15.69C21.48,29,23.62,25,28.33,22.66c2.07-1.03,4.31-1.33,6.58-1.33
		c9.92-0.02,19.83-0.03,29.75,0c3.23,0.01,6.29,0.66,8.89,2.75c2.78,2.23,4.23,5.16,4.6,8.66c0.11,1.04,0.14,2.07,0.14,3.11
		c-0.01,9.55,0.01,19.1-0.01,28.66c-0.01,3.08-0.56,6.04-2.44,8.59c-2.32,3.14-5.5,4.69-9.34,5.03c-1.11,0.1-2.21,0.11-3.32,0.11
		c-9.36,0-18.72,0.01-28.08-0.01c-2.8-0.01-5.52-0.44-7.95-1.98c-3.13-1.99-4.97-4.85-5.57-8.49c-0.21-1.29-0.28-2.59-0.28-3.9
		c0.01-4.7,0.01-9.4,0.01-14.1C21.32,49.77,21.33,49.77,21.33,49.77z M58.47,47.66c-3.08,0-6.16,0-9.25,0
		c-1.27,0-1.93,0.65-1.94,1.92c-0.01,3.01-0.01,6.03,0,9.04c0,1.27,0.66,1.93,1.93,1.93c5.37,0,10.73-0.01,16.1,0.01
		c0.91,0,1.49-0.37,1.92-1.15c1.64-3.02,2.46-6.24,2.41-9.68c-0.02-1.45-0.61-2.06-2.06-2.06C64.55,47.66,61.51,47.66,58.47,47.66z
		 M57.92,45.12c2.95,0,5.9,0.01,8.85,0c1.32-0.01,2.07-1.06,1.66-2.31c-0.64-1.9-1.46-3.74-2.75-5.27
		c-4.3-5.09-9.77-7.71-16.48-7.61c-1.28,0.02-1.9,0.66-1.9,1.95c0,3.77,0,7.54,0,11.31c0,1.31,0.65,1.94,1.98,1.95
		C52.15,45.12,55.04,45.12,57.92,45.12z M37.42,47.66c-1.77,0-3.55,0-5.32,0c-1.46,0-2.02,0.6-2.04,2.07
		c-0.04,3.44,0.81,6.66,2.4,9.7c0.4,0.78,0.98,1.13,1.86,1.13c2.84-0.02,5.68,0,8.52-0.01c1.27,0,1.91-0.65,1.91-1.93
		c0-3.01,0-6.03,0-9.04c0-1.27-0.65-1.91-1.93-1.92C41.02,47.66,39.22,47.66,37.42,47.66z M44.2,38.27c0-1.66,0.01-3.32,0-4.99
		c-0.01-1.48-1.22-2.22-2.56-1.58c-4.81,2.3-8.26,5.88-10.2,10.87c-0.56,1.45,0.16,2.53,1.72,2.54c3.04,0.01,6.08,0,9.11,0
		c1.27,0,1.92-0.66,1.93-1.93C44.2,41.55,44.2,39.91,44.2,38.27z M54.59,63.1c-1.82,0-3.63-0.01-5.45,0
		c-1.09,0.01-1.81,0.64-1.84,1.67c-0.03,1.06-0.03,2.13,0,3.19c0.03,0.93,0.7,1.58,1.6,1.65c4.4,0.32,8.35-1,12.01-3.31
		c0.87-0.55,1.12-1.23,0.87-2.01c-0.25-0.77-0.88-1.18-1.87-1.18C58.14,63.09,56.37,63.1,54.59,63.1z M39.95,63.1
		c-0.89,0-1.77,0-2.66,0c-0.39,0-0.68,0.16-0.85,0.53c-0.17,0.38-0.04,0.69,0.24,0.96c1.52,1.45,3.22,2.62,5.2,3.36
		c1.14,0.43,2.24-0.3,2.3-1.52c0.03-0.51,0.01-1.02,0-1.53c-0.02-1.1-0.69-1.78-1.79-1.8C41.59,63.09,40.77,63.1,39.95,63.1z"/>
	<path d="M58.47,47.66c3.04,0,6.07,0,9.11,0c1.45,0,2.04,0.61,2.06,2.06c0.05,3.44-0.77,6.66-2.41,9.68
		c-0.42,0.78-1.01,1.16-1.92,1.15c-5.37-0.02-10.73-0.01-16.1-0.01c-1.27,0-1.92-0.66-1.93-1.93c-0.01-3.01-0.01-6.03,0-9.04
		c0-1.27,0.66-1.92,1.94-1.92C52.31,47.66,55.39,47.66,58.47,47.66z"/>
	<path d="M57.92,45.12c-2.88,0-5.77,0-8.65,0c-1.32,0-1.98-0.64-1.98-1.95c0-3.77,0-7.54,0-11.31c0-1.29,0.62-1.93,1.9-1.95
		c6.71-0.09,12.19,2.52,16.48,7.61c1.3,1.54,2.12,3.37,2.75,5.27c0.42,1.25-0.33,2.3-1.66,2.31C63.83,45.13,60.87,45.12,57.92,45.12
		z"/>
	<path d="M37.42,47.66c1.8,0,3.59,0,5.39,0c1.28,0,1.93,0.65,1.93,1.92c0,3.01,0,6.03,0,9.04c0,1.28-0.64,1.93-1.91,1.93
		c-2.84,0-5.68-0.01-8.52,0.01c-0.87,0.01-1.45-0.35-1.86-1.13c-1.58-3.04-2.44-6.25-2.4-9.7c0.02-1.47,0.59-2.07,2.04-2.07
		C33.87,47.66,35.65,47.66,37.42,47.66z"/>
	<path d="M44.2,38.27c0,1.64,0,3.28,0,4.92c0,1.27-0.66,1.93-1.93,1.93c-3.04,0-6.08,0.01-9.11,0c-1.56,0-2.29-1.08-1.72-2.54
		c1.94-4.99,5.39-8.57,10.2-10.87c1.34-0.64,2.55,0.1,2.56,1.58C44.21,34.95,44.2,36.61,44.2,38.27z"/>
	<path d="M54.59,63.1c1.77,0,3.55,0,5.32,0c0.99,0,1.62,0.4,1.87,1.18c0.25,0.78,0,1.46-0.87,2.01c-3.67,2.32-7.62,3.63-12.01,3.31
		c-0.9-0.06-1.56-0.72-1.6-1.65c-0.04-1.06-0.04-2.13,0-3.19c0.03-1.03,0.75-1.67,1.84-1.67C50.96,63.09,52.78,63.1,54.59,63.1z"/>
	<path d="M39.95,63.1c0.82,0,1.64-0.01,2.46,0c1.1,0.02,1.76,0.69,1.79,1.8c0.01,0.51,0.02,1.02,0,1.53
		c-0.06,1.22-1.16,1.95-2.3,1.52c-1.98-0.74-3.68-1.91-5.2-3.36c-0.28-0.26-0.41-0.58-0.24-0.96c0.16-0.37,0.46-0.52,0.85-0.53
		C38.18,63.09,39.07,63.1,39.95,63.1z"/>
</g>
</svg>
