<?xml version="1.0" encoding="utf-8"?>
<!-- Generator: Adobe Illustrator 24.1.0, SVG Export Plug-In . SVG Version: 6.00 Build 0)  -->
<svg version="1.1" id="Layer_1" xmlns="http://www.w3.org/2000/svg" xmlns:xlink="http://www.w3.org/1999/xlink" x="0px" y="0px"
	 viewBox="0 0 100 100" style="enable-background:new 0 0 100 100;" xml:space="preserve">
<style type="text/css">
	.st0{fill:#FFFFFF;}
	.st1{fill:none;stroke:#FFFFFF;stroke-width:4;stroke-linecap:round;stroke-linejoin:round;stroke-miterlimit:10;}
</style>
<circle cx="50.09" cy="50.01" r="49.5"/>
<g>
	<g>
		<g>
			<path class="st0" d="M41.18,36.99c0,1.97-1.25,3.58-3.58,3.58c-2.15,0-3.58-1.61-3.58-3.4c0-1.97,1.43-3.76,3.58-3.76
				S41.18,35.02,41.18,36.99z"/>
		</g>
		<g>
			<rect x="34.02" y="42.36" class="st0" width="7.15" height="23.25"/>
		</g>
		<g>
			<path class="st0" d="M58.35,42.71c-3.76,0-5.9,2.15-6.8,3.58h-0.18l-0.36-3.04h-6.44c0,1.97,0.18,4.29,0.18,6.98v15.38h7.15
				v-12.7c0-0.72,0-1.25,0.18-1.79c0.54-1.25,1.43-2.86,3.4-2.86c2.5,0,3.58,2.15,3.58,5.01v12.34h7.15V52.37
				C66.22,45.76,62.82,42.71,58.35,42.71z"/>
		</g>
	</g>
	<path class="st1" d="M69.39,81.39H30.85c-6.97,0-12.61-5.65-12.61-12.61V30.24c0-6.97,5.65-12.61,12.61-12.61h38.54
		c6.97,0,12.61,5.65,12.61,12.61v38.54C82,75.75,76.35,81.39,69.39,81.39z"/>
</g>
</svg>
