<?xml version="1.0" encoding="utf-8"?>
<!-- Generator: Adobe Illustrator 24.1.0, SVG Export Plug-In . SVG Version: 6.00 Build 0)  -->
<svg version="1.1" id="Layer_1" xmlns="http://www.w3.org/2000/svg" xmlns:xlink="http://www.w3.org/1999/xlink" x="0px" y="0px"
	 viewBox="0 0 100 100" style="enable-background:new 0 0 100 100;" xml:space="preserve">
<style type="text/css">
	.st0{fill:#FFFFFF;}
	.st1{fill:none;stroke:#FFFFFF;stroke-width:4;stroke-linecap:round;stroke-linejoin:round;stroke-miterlimit:10;}
</style>
<circle cx="49.86" cy="49.76" r="49.5"/>
<g>
	<g>
		<g>
			<path class="st0" d="M42.46,39.4c0,1.63-1.04,2.96-2.96,2.96c-1.78,0-2.96-1.33-2.96-2.81c0-1.63,1.18-3.11,2.96-3.11
				S42.46,37.77,42.46,39.4z"/>
		</g>
		<g>
			<rect x="36.54" y="43.84" class="st0" width="5.92" height="19.24"/>
		</g>
		<g>
			<path class="st0" d="M56.66,44.14c-3.11,0-4.88,1.78-5.62,2.96h-0.15l-0.3-2.52h-5.33c0,1.63,0.15,3.55,0.15,5.77v12.73h5.92
				V52.57c0-0.59,0-1.04,0.15-1.48c0.44-1.04,1.18-2.37,2.81-2.37c2.07,0,2.96,1.78,2.96,4.14v10.21h5.92V52.13
				C63.18,46.65,60.36,44.14,56.66,44.14z"/>
		</g>
	</g>
	<path class="st1" d="M63.62,76.14H36.09c-6.97,0-12.61-5.65-12.61-12.61V35.99c0-6.97,5.65-12.61,12.61-12.61h27.54
		c6.97,0,12.61,5.65,12.61,12.61v27.54C76.24,70.5,70.59,76.14,63.62,76.14z"/>
</g>
</svg>
