<?xml version="1.0" encoding="utf-8"?>
<!-- Generator: Adobe Illustrator 24.1.0, SVG Export Plug-In . SVG Version: 6.00 Build 0)  -->
<svg version="1.1" id="Layer_1" xmlns="http://www.w3.org/2000/svg" xmlns:xlink="http://www.w3.org/1999/xlink" x="0px" y="0px"
	 viewBox="0 0 100 100" style="enable-background:new 0 0 100 100;" xml:space="preserve">
<style type="text/css">
	.st0{fill:#FFFFFF;}
	.st1{fill:none;}
</style>
<circle cx="49.8" cy="50.02" r="49.5"/>
<g>
	<g>
		<g>
			<path class="st0" d="M53.46,50.07c0,9.02-7.26,16.33-16.21,16.33s-16.21-7.31-16.21-16.33s7.26-16.33,16.21-16.33
				S53.46,41.06,53.46,50.07"/>
			<path class="st0" d="M71.25,50.07c0,8.49-3.63,15.37-8.11,15.37s-8.11-6.88-8.11-15.37s3.63-15.37,8.11-15.37
				S71.25,41.59,71.25,50.07"/>
			<path class="st0" d="M78.53,50.07c0,7.6-1.28,13.77-2.85,13.77s-2.85-6.16-2.85-13.77S74.1,36.3,75.67,36.3
				S78.53,42.47,78.53,50.07"/>
		</g>
	</g>
	<path class="st1" d="M94.8,18.33H78.47v0.01H21.12v-0.01H4.8v63.35h6.58v0.02h77.7v-0.02h5.72V18.33z M78.47,34.66v30.72H21.12
		V34.66H78.47z"/>
</g>
</svg>
