<?xml version="1.0" encoding="utf-8"?>
<!-- Generator: Adobe Illustrator 24.1.0, SVG Export Plug-In . SVG Version: 6.00 Build 0)  -->
<svg version="1.1" id="Layer_1" xmlns="http://www.w3.org/2000/svg" xmlns:xlink="http://www.w3.org/1999/xlink" x="0px" y="0px"
	 viewBox="0 0 100 100" style="enable-background:new 0 0 100 100;" xml:space="preserve">
<style type="text/css">
	.st0{fill:#FFFFFF;}
	.st1{fill:none;}
</style>
<circle cx="50.09" cy="50.01" r="49.5"/>
<g>
	<g>
		<g>
			<path class="st0" d="M54.86,50.09c0,10.72-8.63,19.41-19.28,19.41s-19.28-8.69-19.28-19.41s8.63-19.41,19.28-19.41
				S54.86,39.37,54.86,50.09"/>
			<path class="st0" d="M76.01,50.09c0,10.09-4.32,18.27-9.64,18.27c-5.32,0-9.64-8.18-9.64-18.27s4.32-18.27,9.64-18.27
				C71.69,31.82,76.01,40,76.01,50.09"/>
			<path class="st0" d="M84.66,50.09c0,9.04-1.52,16.37-3.39,16.37s-3.39-7.33-3.39-16.37s1.52-16.37,3.39-16.37
				S84.66,41.05,84.66,50.09"/>
		</g>
	</g>
	<path class="st1" d="M104,12.35H84.59v0.02H16.41v-0.02H-3v75.32h7.83v0.03H97.2v-0.03h6.8V12.35z M84.59,31.77v36.52H16.41V31.77
		H84.59z"/>
</g>
</svg>
